# xmcd
#
# Track frame offsets:
#	150
#	14527
#	26574
#	39047
#	49289
#	60087
#	73513
#	84279
#	97581
#	108558
#	113272
#	125018
#	136903
#	151399
#	161670
#	173343
#	184984
#	196721
#
# Disc length: 2769 seconds
#
# Revision: 1
# Processed by: cddbd v1.5.1PL0 Copyright (c) Steve Scherf et al.
# Submitted via: audiograbber 1.83.01
#
DISCID=d10acf12
DTITLE=div - Country History#3
DYEAR=2005
DGENRE=Country
TTITLE0=Joe's Acadians - Ammend La Nouville A Mamere
TTITLE1=The Sheldon Brothers - Aura Lee
TTITLE2=Cliff Bruner - It Makes No Difference Now
TTITLE3=Bob Wills - Liza Pull Down The Shades
TTITLE4=Light Crust Doughboys - Pussy Pussy Pussy
TTITLE5=Joe Werner - Running Around
TTITLE6=Claude Casey - Pine State Honky Tonk
TTITLE7=The Sheldon Brothers - On The Owl Hoot Trail
TTITLE8=Radio Coboys - Mississippi Muddle
TTITLE9=Gene Autry - Colorado Sunset
TTITLE10=Gene Autry - Back In The Saddle Again
TTITLE11=Gene Autry - Blueberry Hill
TTITLE12=Jubileers - Boogie Woogie Johnson
TTITLE13=Gene Autry - El Rancho Grande
TTITLE14=Dixie Ramblers - He's An Army Man
TTITLE15=Bob Wills - New San Antonio Rose
TTITLE16=Jubileers - The Right String
TTITLE17=Bar X Cowboys - When Mama Goes Out
EXTD=
EXTT0=
EXTT1=
EXTT2=
EXTT3=
EXTT4=
EXTT5=
EXTT6=
EXTT7=
EXTT8=
EXTT9=
EXTT10=
EXTT11=
EXTT12=
EXTT13=
EXTT14=
EXTT15=
EXTT16=
EXTT17=
PLAYORDER=
